<?xml version="1.0" encoding="utf-8"?>
<!-- Svg Vector Icons : http://www.onlinewebfonts.com/icon -->
<!DOCTYPE svg PUBLIC "-//W3C//DTD SVG 1.1//EN" "http://www.w3.org/Graphics/SVG/1.1/DTD/svg11.dtd">
<svg version="1.1" xmlns="http://www.w3.org/2000/svg" xmlns:xlink="http://www.w3.org/1999/xlink" fill="white" x="0px" y="0px" viewBox="0 0 1000 1000" enable-background="new 0 0 1000 1000" xml:space="preserve">
<metadata> Svg Vector Icons : http://www.onlinewebfonts.com/icon </metadata>
<g><path d="M500,640.3c145.4,0,245-105.6,245-245.5V254.5c0-140-99.6-245.5-245-245.5C354.6,8.9,255,114.5,255,254.5v140.3C255,534.7,354.6,640.3,500,640.3L500,640.3z M325,254.5c0-98.6,72.6-175.4,175-175.4c102.4,0,175,76.8,175,175.4v140.3c0,98.6-72.6,175.4-175,175.4c-102.4,0-175-76.8-175-175.4V254.5z M748.6,534.6l-8.6-2.9l-4.3,7.8c-8.9,16.1-19.6,31.8-31.8,46.5l-10,12.1l15.4,4.2C822.4,633.6,913,809.5,917.6,921.1H82.4c4.7-111.6,84.9-287.5,198-318.8l15.4-4.2l-10-12.1c-12.2-14.8-22.9-30.4-31.8-46.5l-4.3-7.8l-8.6,2.9C99.4,581.7,10,777.3,10,921.1v69.9h980v-69.9C990,777.3,890.3,581.7,748.6,534.6L748.6,534.6z"/></g>
</svg>
