<?xml version="1.0" encoding="utf-8"?>
<!-- Svg Vector Icons : http://www.onlinewebfonts.com/icon -->
<!DOCTYPE svg PUBLIC "-//W3C//DTD SVG 1.1//EN" "http://www.w3.org/Graphics/SVG/1.1/DTD/svg11.dtd">
<svg version="1.1" xmlns="http://www.w3.org/2000/svg" xmlns:xlink="http://www.w3.org/1999/xlink" fill="white" x="0px" y="0px" viewBox="0 0 1000 1000" enable-background="new 0 0 1000 1000" xml:space="preserve">
<metadata> Svg Vector Icons : http://www.onlinewebfonts.com/icon </metadata>
<g><path d="M42.3,236C68.9,250.2,437,481.6,450.7,488.8c13.7,7.3,31.5,10.8,49.3,10.8c17.9,0,35.6-3.5,49.3-10.8C563,481.6,931.1,250.2,957.7,236c26.6-14.1,51.8-62.7,2.9-62.7H39.4C-9.4,173.3,15.7,221.9,42.3,236z M968.9,323.1c-30.2,15.6-401.1,239.4-419.6,249c-18.5,9.6-31.5,10.8-49.3,10.8c-17.9,0-30.8-1.2-49.3-10.8c-18.5-9.5-389.4-233.4-419.6-249C9.8,312.2,10,325,10,335c0,9.9,0,440,0,440c0,22.6,30.4,51.7,54,51.7h872c23.6,0,54-29.1,54-51.7c0,0,0-430.1,0-440C990,325,990.2,312.2,968.9,323.1z"/></g>
</svg>
