<?xml version="1.0" encoding="UTF-8" standalone="no"?>
<!DOCTYPE svg PUBLIC "-//W3C//DTD SVG 1.1//EN" "http://www.w3.org/Graphics/SVG/1.1/DTD/svg11.dtd">
<svg version="1.1" xmlns="http://www.w3.org/2000/svg" xmlns:xlink="http://www.w3.org/1999/xlink" preserveAspectRatio="xMidYMid meet" viewBox="0 0 640 640" width="640" height="640"><defs><path d="M397.87 99.72C387.07 106.5 387.07 106.5 364.95 103.49C339.08 99.97 274.26 101.73 255.67 106.25C243.1 109.27 242.85 109.27 228.54 100.22C210.45 88.67 184.32 78.62 172.51 78.62C164.72 78.62 163.22 79.62 159.95 87.66C154.68 100.47 152.67 127.86 156.18 143.69C158.94 156.75 158.94 157.25 150.15 168.81C135.83 188.41 131.06 202.73 129.55 229.36C128.29 250.21 130.8 277.35 135.33 293.68C136.58 298.96 135.83 298.96 104.42 300.71C60.71 302.97 20.26 306.99 11.47 310.01C5.69 311.77 6.2 312.02 15.74 311.01C36.34 308.76 87.08 304.99 112.72 303.72C137.59 302.47 138.09 302.72 140.85 308.5C143.87 315.03 144.87 314.78 96.13 318.55C76.04 320.31 20.51 330.6 10.46 334.62C0.67 338.64 8.95 337.64 31.32 332.36C58.2 326.09 106.69 319.8 128.79 319.8C129.93 319.8 135.63 319.8 145.88 319.8C151.15 327.04 154.08 331.06 154.67 331.86C170.25 352.97 198.13 369.29 232.3 377.59C243.86 380.35 256.17 382.61 260.19 382.61C268.48 382.61 268.73 385.12 260.94 392.41C257.68 395.68 252.4 403.71 249.63 410.5C243.35 424.82 239.08 426.58 212.7 426.32C190.59 426.32 186.57 423.81 166.22 398.94C157.93 388.89 147.13 378.59 142.6 376.58C133.06 372.05 119.74 371.3 117.48 375.32C116.47 376.58 122.5 384.36 130.79 392.15C140.84 401.7 148.13 411.24 152.15 420.29C165.96 451.7 184.05 463 221.24 463C222.78 463 230.48 463 244.35 463L244.35 493.65L244.35 524.3C237.42 530.63 233.56 534.15 232.79 534.85C226.52 540.88 221.99 546.91 223 548.42C227.26 555.46 255.9 547.17 266.71 535.61C271.73 530.34 271.98 527.32 272.24 488.38C272.24 446.92 274.75 430.59 281.53 428.33C283.79 427.58 284.54 437.13 284.29 471.04C284.04 525.56 282.28 541.13 274.75 551.18C270.98 556.46 269.72 559.72 271.48 561.48C275.25 565.25 288.56 561.48 297.36 554.2C312.18 541.64 313.18 537.37 314.19 477.57C315.19 426.57 315.44 422.8 319.72 422.8C323.99 422.8 324.49 426.57 325.25 478.83C325.75 519.78 327 536.36 329.52 541.39C335.8 553.7 364.19 568.27 368.46 561.48C369.22 559.97 366.71 553.45 362.43 546.91C361.93 546.11 359.42 542.09 354.89 534.85C354.89 502.75 354.89 484.91 354.89 481.34C354.89 446.42 355.9 427.83 357.41 427.83C362.94 427.83 364.95 442.16 364.95 481.34C364.95 526.82 367.21 535.61 381.53 543.9C390.82 549.18 409.91 552.19 414.94 548.93C417.46 547.17 415.7 544.15 406.91 536.12C406.15 535.43 402.38 532 395.6 525.82C394.99 493.71 394.66 475.87 394.59 472.31C393.84 425.32 393.09 417.79 388.31 407.74C385.55 401.46 380.77 394.17 377.77 391.65C370.23 384.87 370.98 383.37 384.55 381.61C403.9 378.84 428.02 372.31 442.34 366.03C457.41 359.49 481.03 338.14 485.55 327.34C488.56 320.06 489.32 319.8 505.4 319.8C526.75 319.8 579.51 326.08 603.63 331.36C631.26 337.39 636.29 337.89 624.99 333.63C610.91 328.1 562.18 320.31 526.25 317.54C509.16 316.29 494.6 314.53 493.59 313.77C492.84 312.77 493.34 310 494.85 307.74C497.11 303.97 501.63 303.48 531.03 304.22C562.18 304.98 591.07 307.24 622.48 311.26C629.51 312.26 634.28 312.26 633.53 311.26C630.76 308.24 579.01 302.46 538.82 300.7C536.07 300.59 522.33 300 497.61 298.95C498.67 295.03 499.26 292.85 499.37 292.42C500.13 288.9 501.63 271.06 502.39 252.72C503.64 223.58 503.14 217.8 498.37 201.97C495.35 192.17 488.06 177.1 481.79 168.06C481.05 166.97 477.36 161.52 470.73 151.72C471.48 136.95 471.9 128.75 471.98 127.1C472.99 107.51 472.23 99.97 468.71 89.92C463.69 76.11 460.93 74.85 445.09 78.62C433.04 81.63 411.43 91.18 397.87 99.72ZM358.92 221.82C403.64 218.81 417.72 220.82 433.54 232.63C448.86 244.19 456.4 261.02 457.65 285.39C459.41 326.84 444.34 349.96 406.4 363.78C395.85 367.55 384.04 368.55 332.79 369.56C268.72 370.56 249.88 368.8 225.76 359.76C197.37 349.21 179.28 324.84 177.02 294.44C174.51 258.52 191.34 233.64 225.51 222.84C238.08 218.8 237.58 218.8 283.3 221.82C308.17 223.58 333.8 223.58 358.92 221.82Z" id="bcQmzEYsJ"></path><path d="M238.59 316.28C248.88 319.05 259.44 305.98 259.44 290.66C259.44 265.79 241.85 252.72 229.54 268.55C218.74 282.12 224.77 313.02 238.59 316.28Z" id="neidiFgMi"></path><path d="M391.84 314.02C397.62 317.79 398.87 317.79 404.9 314.52C413.2 309.75 417.72 300.95 417.72 288.9C417.72 267.3 400.63 253.98 389.08 266.79C377.77 279.35 379.03 305.73 391.84 314.02Z" id="b3Sa2FBaE"></path></defs><g><g><g><use xlink:href="#bcQmzEYsJ" opacity="1" fill="#ffffff" fill-opacity="1"></use><g><use xlink:href="#bcQmzEYsJ" opacity="1" fill-opacity="0" stroke="#000000" stroke-width="1" stroke-opacity="0"></use></g></g><g><use xlink:href="#neidiFgMi" opacity="1" fill="#ffffff" fill-opacity="1"></use><g><use xlink:href="#neidiFgMi" opacity="1" fill-opacity="0" stroke="#000000" stroke-width="1" stroke-opacity="0"></use></g></g><g><use xlink:href="#b3Sa2FBaE" opacity="1" fill="#ffffff" fill-opacity="1"></use><g><use xlink:href="#b3Sa2FBaE" opacity="1" fill-opacity="0" stroke="#000000" stroke-width="1" stroke-opacity="0"></use></g></g></g></g></svg>