<?xml version="1.0" encoding="UTF-8" standalone="no"?>
<!DOCTYPE svg PUBLIC "-//W3C//DTD SVG 1.1//EN" "http://www.w3.org/Graphics/SVG/1.1/DTD/svg11.dtd">
<svg version="1.1" xmlns="http://www.w3.org/2000/svg" xmlns:xlink="http://www.w3.org/1999/xlink" preserveAspectRatio="xMidYMid meet" viewBox="0 0 640 640" width="640" height="640"><defs><path d="M197.5 531.52L197.5 248.13L103.17 248.13L103.17 531.52L197.5 531.52ZM188.93 125.63C179.39 116.35 166.72 111.74 150.91 111.74C135.1 111.74 122.24 116.35 112.32 125.63C102.4 134.91 97.47 146.62 97.41 160.77C97.41 174.66 102.21 186.3 111.87 195.71C121.54 205.12 134.14 209.79 149.63 209.79C149.68 209.79 150.04 209.79 150.08 209.79C166.14 209.79 179.07 205.06 188.86 195.71C198.72 186.24 203.58 174.59 203.58 160.77C203.33 146.62 198.4 134.91 188.93 125.63ZM536.83 531.52C536.83 434.02 536.83 379.86 536.83 369.02C536.83 327.1 526.91 295.42 507.07 273.92C487.23 252.42 460.93 241.66 428.22 241.66C391.23 241.66 362.75 257.6 342.85 289.41C342.9 289.41 343.18 289.41 343.68 289.41L343.68 248.19C287.12 248.19 255.69 248.19 249.41 248.19C250.24 266.18 250.24 360.64 249.41 531.58C255.7 531.58 287.14 531.58 343.74 531.58C343.74 436.54 343.74 383.74 343.74 373.18C343.74 362.82 344.7 355.2 346.62 350.27C350.72 340.74 356.86 332.67 364.99 325.95C373.18 319.23 383.23 315.9 395.2 315.97C426.75 315.97 442.56 337.34 442.56 380.1C442.56 390.19 442.53 440.67 442.5 531.52L442.5 531.52L536.83 531.52ZM633.6 515.97C633.6 548.35 622.08 576.06 599.1 599.04C576.13 622.08 548.42 633.6 515.97 633.6C476.77 633.6 163.17 633.6 123.97 633.6C91.58 633.6 63.87 622.08 40.83 599.1C17.92 576.13 6.4 548.42 6.4 515.97C6.4 476.77 6.4 163.17 6.4 123.97C6.4 91.58 17.92 63.87 40.9 40.83C63.87 17.92 91.58 6.4 123.97 6.4C163.17 6.4 476.77 6.4 515.97 6.4C548.35 6.4 576.06 17.92 599.04 40.9C622.08 63.87 633.6 91.58 633.6 123.97C633.6 202.37 633.6 476.77 633.6 515.97Z" id="dbkxZzyZL1"></path></defs><g><g><g><use xlink:href="#dbkxZzyZL1" opacity="1" fill="#ffffff" fill-opacity="1"></use><g><use xlink:href="#dbkxZzyZL1" opacity="1" fill-opacity="0" stroke="#000000" stroke-width="1" stroke-opacity="0"></use></g></g></g></g></svg>